
<svg version="1.1" id="Layer_1" xmlns="http://www.w3.org/2000/svg" xmlns:xlink="http://www.w3.org/1999/xlink" x="0px" y="0px"
	 viewBox="0 0 40.5 32.9"  xml:space="preserve">

<path id="HOME" class="st0" d="M40,14.1L21,0.2c-0.4-0.3-1-0.3-1.5,0l-19,13.8c-0.6,0.4-0.7,1.2-0.2,1.8c0.4,0.5,1.2,0.7,1.7,0.3
	l2.5-1.8v17.4c0,0.7,0.6,1.3,1.3,1.3c0,0,0,0,0,0h29c0.7,0,1.3-0.6,1.3-1.3c0,0,0,0,0,0V14.3l2.5,1.8c0.6,0.4,1.4,0.3,1.8-0.3
	C40.7,15.3,40.6,14.5,40,14.1L40,14.1z M33.5,30.4H7v-18l13.2-9.6l13.2,9.6L33.5,30.4L33.5,30.4z"/>
</svg>
