<?xml version="1.0" encoding="utf-8"?>
<!-- Generator: Adobe Illustrator 24.1.3, SVG Export Plug-In . SVG Version: 6.00 Build 0)  -->
<svg version="1.1" id="Слой_1" xmlns="http://www.w3.org/2000/svg" xmlns:xlink="http://www.w3.org/1999/xlink" x="0px" y="0px"
	 viewBox="0 0 26 26" style="enable-background:new 0 0 26 26;" xml:space="preserve">

<path class="st0" d="M16.8,14.5c2.1-1.3,3.5-3.6,3.5-6.2C20.3,4.3,17,1,13,1S5.7,4.3,5.7,8.3c0,2.6,1.4,4.9,3.5,6.2
	c-4.5,1-7.7,3.8-7.7,7.1C1.5,24.3,8.7,25,13,25s11.5-0.7,11.5-3.5C24.5,18.2,21.3,15.5,16.8,14.5z M7.2,8.3c0-3.2,2.6-5.8,5.8-5.8
	s5.8,2.6,5.8,5.8S16.2,14,13,14S7.2,11.5,7.2,8.3z M13,23.5c-6.1,0-9.8-1.3-10-2c0-3.3,4.5-6,10-6c5.5,0,9.9,2.7,10,6
	C22.8,22.2,19.1,23.5,13,23.5z"/>
</svg>
